<svg width="616" height="668" viewBox="0 0 616 668" fill="none" xmlns="http://www.w3.org/2000/svg">
<path d="M616 360C616 530.104 478.104 668 308 668C137.896 668 0 530.104 0 360C0 189.896 137.896 52 308 52C478.104 52 616 189.896 616 360ZM41.8478 360C41.8478 506.992 161.008 626.152 308 626.152C454.992 626.152 574.152 506.992 574.152 360C574.152 213.008 454.992 93.8478 308 93.8478C161.008 93.8478 41.8478 213.008 41.8478 360Z" fill="url(#paint0_radial_108_7)"/>
<mask id="mask0_108_7" style="mask-type:alpha" maskUnits="userSpaceOnUse" x="388" y="146" width="185" height="301">
<path d="M399.5 310C423.5 289.5 435.5 286.5 435.5 272C435.5 257.5 439.5 270.5 440.5 257C441.3 246.2 442.167 259.5 442.5 267.5L448.5 249L453.5 263.5L461.5 236L470.5 259C470.667 254.167 473.1 243.3 481.5 238.5C492 232.5 509.5 225.5 520 218.5C530.5 211.5 553 192 553.5 168.5C553.9 149.7 555.667 146.333 556.5 147C564.5 162.833 578.1 206.5 568.5 254.5C569.902 266.653 547.271 305.753 536.555 309.706L541.5 309L547 306.5C547 313.5 539.5 324 529 334C524.5 338.286 509.5 347.833 505.5 351H511C506.333 355.833 495.5 367.6 487.5 372C479.5 376.4 468.333 378.833 464 380L470.5 381.5C470.833 384.333 468.5 390.5 461.5 395C454.121 399.744 447.833 402.5 446 403.5C451 402.333 461.6 399.8 464 399C466.4 398.2 472.667 394.667 475.5 393C474.5 398.667 470.3 411.7 461.5 418.5C461.5 418.5 462.5 419.333 468.5 415.5C463.833 422.833 452.5 438.175 443 441.5C435 444.3 416.5 450 389 442.5L399.5 310Z" fill="black" stroke="black"/>
</mask>
<g mask="url(#mask0_108_7)">
<rect x="382" y="116" width="234" height="337" fill="url(#paint1_linear_108_7)"/>
</g>
<mask id="mask1_108_7" style="mask-type:alpha" maskUnits="userSpaceOnUse" x="62" y="0" width="391" height="643">
<path d="M153.5 1.5C146.5 48.5 150.5 90.5 156.5 117.5C162.5 144.5 192 185.5 201.5 195.5C211 205.5 237 229 249.5 236.5C262 244 274.5 252 282 257C289.5 262 291.5 266.5 298 276C304.5 285.5 300 315 300.5 322C301 329 307 340.5 310.5 343C314 345.5 316 350.5 323.5 352.5C331 354.5 336 351.5 344 343C352 334.5 357 328 361 312C365 296 380.5 290.143 385 289.5C391.633 288.552 396.5 288 404 289.5C412.433 291.187 426.5 302 435 312C441.8 320 448.833 329.667 451.5 333.5C446.167 331 432 328.833 428 329.5C424 330.167 421 329.5 409 339C391 356 414 380 416 383.5C418 387 433.456 424.574 418.5 449.5C409 465.333 385.5 488.5 328 496C270.5 503.5 271.5 551.5 271.5 566.5C271.5 581.5 271.736 589.969 261.5 605.5C247 627.5 215 641 215 641C215 641 222 632 226 622C228.99 614.526 230 605.167 231 600C222.833 612.333 205 627 190 634C171.425 642.668 156 641 156 641L190 592C179.167 601.333 154.2 620.9 141 624.5C127.8 628.1 102.833 629 92 629L146.531 575.747C134.089 586.898 115.706 600 101 600C81.8 600 67.6667 594.667 63 592L131.767 542.469C123.964 547.782 108.96 555.795 94.5 556.5C78.1 557.3 69 552.5 66.5 550L125.05 516.051C118.298 519.807 104.623 524.266 97 515.5C89 506.3 92 496.333 94.5 492.5C120 493.333 176.7 492.2 199.5 481C222.3 469.8 242.333 442.667 249.5 430.5C237.833 429.5 210.7 424.8 195.5 414C180.3 403.2 177.333 398.5 168 389.5L153 378C153 378 145.209 372.147 145.5 367C145.629 364.718 145.5 362.5 145.5 362.5C136.5 357 124 345.5 121.5 336C128 337.5 134.5 336.5 134.5 336.5L123 328.5C106.5 314 100 302.5 94.5 288.5C98.5 289 100.434 289.522 104 288.5C87.5 280 83.5 258.5 83.5 258.5C87 259 94 257.5 94 257.5C78 246.5 71 235 70 213.5L70.3808 213.786C78.0825 219.564 80.6845 221.516 92 222.5C80 206 71.5 187 82.5 159C86 175 93 187.5 102.5 193C87 162.5 76 129.5 84 111C85.1009 123.377 86.924 128.41 92 134.5C86.4476 104.206 89.5 80.5 108 67C111 96.5 108.5 105 119 122C119.5 70 125.5 14 153.5 1.5Z" fill="black" stroke="black"/>
</mask>
<g mask="url(#mask1_108_7)">
<rect x="-4" y="-36" width="620" height="765" fill="url(#paint2_linear_108_7)"/>
<ellipse cx="257.5" cy="477.5" rx="130.5" ry="133.5" fill="url(#paint3_radial_108_7)"/>
</g>
<defs>
<radialGradient id="paint0_radial_108_7" cx="0" cy="0" r="1" gradientUnits="userSpaceOnUse" gradientTransform="translate(308 360) rotate(88.3824) scale(301.12)">
<stop stop-color="#030238"/>
<stop offset="0.905526" stop-opacity="0.877392"/>
<stop offset="1" stop-opacity="0"/>
</radialGradient>
<linearGradient id="paint1_linear_108_7" x1="572" y1="185.5" x2="354" y2="405" gradientUnits="userSpaceOnUse">
<stop stop-color="white"/>
<stop offset="0.568853" stop-color="#00069A"/>
<stop offset="0.868856" stop-color="#00045B"/>
<stop offset="1" stop-color="#000006"/>
</linearGradient>
<linearGradient id="paint2_linear_108_7" x1="450.5" y1="283" x2="-90.5" y2="516.5" gradientUnits="userSpaceOnUse">
<stop stop-color="#D9D9D9"/>
<stop offset="1" stop-color="#CC4D05"/>
</linearGradient>
<radialGradient id="paint3_radial_108_7" cx="0" cy="0" r="1" gradientUnits="userSpaceOnUse" gradientTransform="translate(249.75 475) rotate(133.189) scale(106.296 103.907)">
<stop stop-color="#BF2AC2" stop-opacity="0.68"/>
<stop offset="1" stop-color="white" stop-opacity="0"/>
</radialGradient>
</defs>
</svg>
